name processed_emg_signals
nRows=74
nColumns=7
 
endheader
time	LGLTMED	LRF	LADDLONG	LST	LTA	LGM
0.0	0.0014751227028858	0.0004955627211137	0.0026600501616675	0.0132303066289393	0.0470398165865804	0.0057398909058999
0.001	0.0009441387319076	0.0009987801926882	0.0031989706928346	0.0137961511645041	0.0497407512249953	0.0045646343964457
0.002	0.000415357841383	0.001502548149574	0.0037376246078379	0.0143555777199681	0.0524556740740645	0.0033938836211411
0.003	0.0001108972767151	0.0020065715427337	0.0042756746877894	0.0149078358450216	0.0551826800003727	0.0022283258280196
0.004	0.0006343075826352	0.0025105552032073	0.004812783843922	0.0154521696537624	0.0579198379493115	0.0010686426734173
0.005	0.0011545581863501	0.0030142042633734	0.0053486155896291	0.0159878188082249	0.0606651935876757	8.449064822023602e-05
0.006	0.0016713388358258	0.0035172245753748	0.0058828345108107	0.0165140195279676	0.063416771992468	0.0012304062608687
0.007	0.0021843443946215	0.004019323125454	0.0064151067332695	0.0170300056243747	0.0661725803785352	0.0023684444480681
0.008	0.0026932753074982	0.0045202084430226	0.0069451003858547	0.0175350095584361	0.0689306108576593	0.0034979544770482
0.009000000000000001	0.0031978380528427	0.0050195910034344	0.0074724860581698	0.0180282635207757	0.0716888432216932	0.0046182954042681
0.01	0.003697745580826	0.0055171836234664	0.0079969372516689	0.0185090005328136	0.0744452477424259	0.0057288368608984
0.011	0.0041927177363166	0.0060127018486098	0.0085181308230545	0.0189764555680154	0.0771977879809249	0.0068289598167892
0.012	0.0046824816656684	0.0065058643313307	0.0090357474189559	0.0194298666921866	0.0799444235993938	0.0079180573215155
0.013000000000000001	0.0051667722065849	0.0069963931995229	0.0095494719010052	0.0198684762218023	0.0826831131689641	0.0089955352210862
0.014	0.0056453322603147	0.0074840144144559	0.0100589937604894	0.0202915318993299	0.0854118169672818	0.0100608128489573
0.015	0.0061179131454653	0.0079684581175767	0.0105640075218721	0.0206982880844686	0.0881284997603801	0.011113323689995
0.016	0.0065842749327941	0.0084494589656606	0.0110642131344967	0.0210880069602939	0.0908311335638273	0.0121525160161227
0.017	0.0070441867603868	0.0089267564538304	0.0115593163518436	0.0214599597532068	0.0935177003787605	0.0131778534924322
0.018000000000000002	0.0074974271287329	0.0094000952261332	0.012049029097742	0.0218134279656234	0.0961861948988977	0.0141888157526919
0.019	0.007943784175299	0.0098692253733631	0.0125330698189812	0.0221477046203017	0.0988346271849886	0.0151848989433093
0.02	0.0083830559283309	0.0103339027179593	0.013011163823856	0.0224620955151568	0.1014610253032372	0.0161656162350658
0.021	0.0088150505396883	0.0107938890857561	0.0134830436062228	0.0227559204874026	0.1040634379242519	0.0171304983020948
0.022	0.0092395864966279	0.0112489525644727	0.0139484491548129	0.0230285146858385	0.1066399368788459	0.018079093767804
0.023	0.0096564928125436	0.0116988677488149	0.0144071282475372	0.0232792298500417	0.1091886196668329	0.0190109696175079
0.024	0.0100656091968254	0.0121434159720787	0.0148588367306663	0.0235074355952151	0.11170761191475	0.019925711577664
0.025	0.010466786204014	0.0125823855242352	0.0153033387828086	0.0237125207013998	0.1141950697782717	0.0208229244616547
0.026000000000000002	0.0108598853625984	0.0130155718564339	0.0157404071636701	0.0238938944057903	0.1166491822851669	0.021702232482077
0.027	0.0112447792838066	0.0134427777719241	0.0161698234476218	0.024050987696863	0.1190681736147296	0.0225632795295695
0.028	0.0116213517508493	0.0138638136033914	0.0165913782421285	0.0241832546090457	0.1214503053098991	0.0234057294182434
0.029	0.0119894977890777	0.0142784973767359	0.0170048713910493	0.0242901735165978	0.1237938784184359	0.0242292660977955
0.03	0.0123491237175952	0.0146866549613652	0.0174101121628382	0.02437124842534	0.1260972355597729	0.0250335938324597
0.031	0.012700147182821	0.0150881202070773	0.0178069194236028	0.0244260102608234	0.1283587629143908	0.0258184373470235
0.032	0.0130424971745667	0.0154827350676075	0.0181951217950124	0.0244540181514525	0.1305768921329365	0.0265835419402134
0.033	0.0133761140251591	0.0158703497109406	0.0185745577969513	0.0244548607050463	0.132750102162812	0.0273286735659348
0.034	0.0137009493921343	0.0162508226164492	0.0189450759748756	0.024428157277271	0.1348769209906117	0.0280536188829771
0.035	0.0140169662250345	0.0166240206590042	0.0193065350117692	0.0243735592303429	0.1369559272993616	0.0287581852739885
0.036000000000000004	0.0143241387167686	0.0169898191801808	0.0196588038246025	0.0242907511803853	0.1389857520400892	0.0294422008346728
0.037	0.0146224522400208	0.0173481020467198	0.0200017616452129	0.0241794522318189	0.1409650799174381	0.0301055143342104
0.038	0.0149119032690929	0.0176987616964446	0.0203352980854727	0.024039417197139	0.142892650789101	0.0307479951479997
0.039	0.0151924992876036	0.0180416991718514	0.0206593131866141	0.0238704378004376	0.1447672609786856	0.0313695331638208
0.04	0.0154642586824091	0.0183768241415831	0.0209737174526144	0.0236723438629807	0.1465877645015773	0.0319700386624954
0.041	0.0157272106241364	0.0187040549100223	0.0212784318675086	0.0234450044692191	0.1483530742033992	0.0325494421741384
0.042	0.0159813949347448	0.0190233184151937	0.0215733878965857	0.0231883291115034	0.1500621628108097	0.033107694311075
0.043000000000000003	0.0162268619424905	0.0193345502151165	0.0218585274714027	0.0229022688118609	0.1517140638944612	0.0336447655784721
0.044	0.0164636723247065	0.0196376944627534	0.022133802958615	0.0225868172190675	0.1533078727440236	0.0341606461637487
0.045	0.0166918969387967	0.0199327038696236	0.0223991771126323	0.0222420116793172	0.1548427471553512	0.0346553457058157
0.046	0.0169116166418084	0.0202195396581575	0.0226546230121728	0.021867934278718	0.1563179081301877	0.0351288930451741
0.047	0.0171229220989723	0.020498171502871	0.0229001239808684	0.0214647128559101	0.1577326404891438	0.0355813359558558
0.048	0.0173259135815767	0.0207685774604423	0.0231356734921322	0.021032521983008	0.1590862933989361	0.0360127408601446
0.049	0.0175207007545342	0.0210307438888043	0.0233612750586338	0.02057158391312	0.1603782808149231	0.0364231925269442
0.05	0.0177074024540205	0.0212846653554053	0.0235769421068078	0.0200821694926049	0.1616080818399234	0.0368127937545088
0.051000000000000004	0.0178861464555531	0.0215303445347779	0.0237826978368758	0.0195645990362267	0.1627752410000978	0.0371816650382346
0.052000000000000005	0.0180570692328808	0.0217677920956612	0.0239785750689457	0.019019243163373	0.1638793684384267	0.0375299442240885
0.053	0.0182203157079978	0.0219970265778984	0.0241646160757582	0.0184465235934835	0.1649201400260084	0.037857786148225
0.054	0.0183760389926151	0.022218074259426	0.0243408724026905	0.0178469138988194	0.1658972973910704	0.0381653622632835
0.055	0.0185244001213258	0.0224309690136947	0.024507404675613	0.0172209402127191	0.166810647865293	0.038452860251821
0.056	0.0186655677767132	0.0226357521578795	0.0246642823972025	0.0165691818914078	0.1676600643468362	0.0387204836272985
0.057	0.0187997180066416	0.0228324722922779	0.0248115837323129	0.0158922721274183	0.1684454850792059	0.03896845132303
0.058	0.018927033933922	0.0230211851313448	0.0249493952830142	0.0151908985126827	0.1691669133448873	0.039196997269471
0.059000000000000004	0.0190477054586117	0.0232019533268582	0.0250778118539572	0.0144658035493044	0.1698244170723434	0.0394063699602113
0.06	0.0191619289531976	0.0233748462837217	0.0251969362087738	0.0137177851061215	0.1704181283549118	0.0395968320070415
0.061	0.0192699069509416	0.0235399399689061	0.025306878818263	0.0129476968191035	0.1709482428801588	0.0397686596844058
0.062	0.0193718478277106	0.0236973167140085	0.0254077576011582	0.0121564484337307	0.171415019268492	0.039922142463509
0.063	0.0194679654775664	0.0238470650118575	0.025499697658288	0.0113450060875099	0.1718187783201059	0.0400575825363274
0.064	0.0195584789824389	0.0239892793075186	0.0255828310008834	0.0105143925308013	0.1721599021697606	0.0401752943298148
0.065	0.0196436122761569	0.0241240597840967	0.0256572962737861	0.009665687284189	0.1724388333495658	0.0402756040106714
0.066	0.0197235938030769	0.0242515121436445	0.0257232384742232	0.0088000267306291	0.1726560737608752	0.0403588489812345
0.067	0.0197986561715851	0.0243717473835335	0.0257808086668102	0.0079186041406409	0.1728121835575712	0.0404253773672112
0.068	0.0198690358026622	0.0244848815685471	0.0258301636953743	0.0070226696288495	0.1729077799441498	0.040475547498104
0.069	0.0199349725737624	0.0245910355989898	0.0258714658922309	0.0061135300402433	0.1729435358927887	0.040509727381354
0.07	0.0199967094582627	0.0246903349750388	0.0259048827855335	0.005192548764551	0.1729201787840228	0.0405282941712147
0.07100000000000001	0.0200544921607557	0.0247829095576544	0.0259305868053303	0.0042611454772392	0.1728384889755031	0.040531633633426
0.07200000000000001	0.0201085687485608	0.0248688933263327	0.025948754988935	0.0033207958056932	0.1726992983031208	0.0405201396066193
0.073	0.0201591892797576	0.0249484241341436	0.0259595686862439	0.0023730309191967	0.1725034885184594	0.0404942134613703
